<?xml version="1.0" encoding="utf-8" standalone="no"?>
<!DOCTYPE svg PUBLIC "-//W3C//DTD SVG 1.1//EN"
  "http://www.w3.org/Graphics/SVG/1.1/DTD/svg11.dtd">
<svg xmlns:xlink="http://www.w3.org/1999/xlink" width="609.449687pt" height="567.031875pt" viewBox="0 0 609.449687 567.031875" xmlns="http://www.w3.org/2000/svg" version="1.1">
 <metadata>
  <rdf:RDF xmlns:dc="http://purl.org/dc/elements/1.1/" xmlns:cc="http://creativecommons.org/ns#" xmlns:rdf="http://www.w3.org/1999/02/22-rdf-syntax-ns#">
   <cc:Work>
    <dc:type rdf:resource="http://purl.org/dc/dcmitype/StillImage"/>
    <dc:date>2026-04-23T00:14:29.623584</dc:date>
    <dc:format>image/svg+xml</dc:format>
    <dc:creator>
     <cc:Agent>
      <dc:title>Matplotlib v3.10.8, https://matplotlib.org/</dc:title>
     </cc:Agent>
    </dc:creator>
   </cc:Work>
  </rdf:RDF>
 </metadata>
 <defs>
  <style type="text/css">*{stroke-linejoin: round; stroke-linecap: butt}</style>
 </defs>
 <g id="figure_1">
  <g id="patch_1">
   <path d="M 0 567.031875 
L 609.449687 567.031875 
L 609.449687 0 
L 0 0 
z
" style="fill: #ffffff"/>
  </g>
  <g id="axes_1">
   <g id="patch_2">
    <path d="M 44.629688 188.16 
L 602.249687 188.16 
L 602.249687 30.96 
L 44.629688 30.96 
z
" style="fill: #ffffff"/>
   </g>
   <g id="matplotlib.axis_1">
    <g id="xtick_1">
     <g id="line2d_1">
      <path d="M 69.976051 188.16 
L 69.976051 30.96 
" clip-path="url(#pe244a90414)" style="fill: none; stroke-dasharray: 2.59,1.12; stroke-dashoffset: 0; stroke: #bfbfbf; stroke-opacity: 0.45; stroke-width: 0.7"/>
     </g>
     <g id="line2d_2">
      <defs>
       <path id="mb0a712acec" d="M 0 0 
L 0 3.5 
" style="stroke: #000000; stroke-width: 0.8"/>
      </defs>
      <g>
       <use xlink:href="#mb0a712acec" x="69.976051" y="188.16" style="stroke: #000000; stroke-width: 0.8"/>
      </g>
     </g>
    </g>
    <g id="xtick_2">
     <g id="line2d_3">
      <path d="M 133.373659 188.16 
L 133.373659 30.96 
" clip-path="url(#pe244a90414)" style="fill: none; stroke-dasharray: 2.59,1.12; stroke-dashoffset: 0; stroke: #bfbfbf; stroke-opacity: 0.45; stroke-width: 0.7"/>
     </g>
     <g id="line2d_4">
      <g>
       <use xlink:href="#mb0a712acec" x="133.373659" y="188.16" style="stroke: #000000; stroke-width: 0.8"/>
      </g>
     </g>
    </g>
    <g id="xtick_3">
     <g id="line2d_5">
      <path d="M 196.771267 188.16 
L 196.771267 30.96 
" clip-path="url(#pe244a90414)" style="fill: none; stroke-dasharray: 2.59,1.12; stroke-dashoffset: 0; stroke: #bfbfbf; stroke-opacity: 0.45; stroke-width: 0.7"/>
     </g>
     <g id="line2d_6">
      <g>
       <use xlink:href="#mb0a712acec" x="196.771267" y="188.16" style="stroke: #000000; stroke-width: 0.8"/>
      </g>
     </g>
    </g>
    <g id="xtick_4">
     <g id="line2d_7">
      <path d="M 260.168875 188.16 
L 260.168875 30.96 
" clip-path="url(#pe244a90414)" style="fill: none; stroke-dasharray: 2.59,1.12; stroke-dashoffset: 0; stroke: #bfbfbf; stroke-opacity: 0.45; stroke-width: 0.7"/>
     </g>
     <g id="line2d_8">
      <g>
       <use xlink:href="#mb0a712acec" x="260.168875" y="188.16" style="stroke: #000000; stroke-width: 0.8"/>
      </g>
     </g>
    </g>
    <g id="xtick_5">
     <g id="line2d_9">
      <path d="M 323.566483 188.16 
L 323.566483 30.96 
" clip-path="url(#pe244a90414)" style="fill: none; stroke-dasharray: 2.59,1.12; stroke-dashoffset: 0; stroke: #bfbfbf; stroke-opacity: 0.45; stroke-width: 0.7"/>
     </g>
     <g id="line2d_10">
      <g>
       <use xlink:href="#mb0a712acec" x="323.566483" y="188.16" style="stroke: #000000; stroke-width: 0.8"/>
      </g>
     </g>
    </g>
    <g id="xtick_6">
     <g id="line2d_11">
      <path d="M 386.964091 188.16 
L 386.964091 30.96 
" clip-path="url(#pe244a90414)" style="fill: none; stroke-dasharray: 2.59,1.12; stroke-dashoffset: 0; stroke: #bfbfbf; stroke-opacity: 0.45; stroke-width: 0.7"/>
     </g>
     <g id="line2d_12">
      <g>
       <use xlink:href="#mb0a712acec" x="386.964091" y="188.16" style="stroke: #000000; stroke-width: 0.8"/>
      </g>
     </g>
    </g>
    <g id="xtick_7">
     <g id="line2d_13">
      <path d="M 450.361699 188.16 
L 450.361699 30.96 
" clip-path="url(#pe244a90414)" style="fill: none; stroke-dasharray: 2.59,1.12; stroke-dashoffset: 0; stroke: #bfbfbf; stroke-opacity: 0.45; stroke-width: 0.7"/>
     </g>
     <g id="line2d_14">
      <g>
       <use xlink:href="#mb0a712acec" x="450.361699" y="188.16" style="stroke: #000000; stroke-width: 0.8"/>
      </g>
     </g>
    </g>
    <g id="xtick_8">
     <g id="line2d_15">
      <path d="M 513.759306 188.16 
L 513.759306 30.96 
" clip-path="url(#pe244a90414)" style="fill: none; stroke-dasharray: 2.59,1.12; stroke-dashoffset: 0; stroke: #bfbfbf; stroke-opacity: 0.45; stroke-width: 0.7"/>
     </g>
     <g id="line2d_16">
      <g>
       <use xlink:href="#mb0a712acec" x="513.759306" y="188.16" style="stroke: #000000; stroke-width: 0.8"/>
      </g>
     </g>
    </g>
    <g id="xtick_9">
     <g id="line2d_17">
      <path d="M 577.156914 188.16 
L 577.156914 30.96 
" clip-path="url(#pe244a90414)" style="fill: none; stroke-dasharray: 2.59,1.12; stroke-dashoffset: 0; stroke: #bfbfbf; stroke-opacity: 0.45; stroke-width: 0.7"/>
     </g>
     <g id="line2d_18">
      <g>
       <use xlink:href="#mb0a712acec" x="577.156914" y="188.16" style="stroke: #000000; stroke-width: 0.8"/>
      </g>
     </g>
    </g>
   </g>
   <g id="matplotlib.axis_2">
    <g id="ytick_1">
     <g id="line2d_19">
      <path d="M 44.629688 181.014545 
L 602.249687 181.014545 
" clip-path="url(#pe244a90414)" style="fill: none; stroke-dasharray: 2.59,1.12; stroke-dashoffset: 0; stroke: #bfbfbf; stroke-opacity: 0.45; stroke-width: 0.7"/>
     </g>
     <g id="line2d_20">
      <defs>
       <path id="m6d728d3288" d="M 0 0 
L -3.5 0 
" style="stroke: #000000; stroke-width: 0.8"/>
      </defs>
      <g>
       <use xlink:href="#m6d728d3288" x="44.629688" y="181.014545" style="stroke: #000000; stroke-width: 0.8"/>
      </g>
     </g>
     <g id="text_1">
      <!-- 0 -->
      <g transform="translate(32.629688 184.325483) scale(0.1 -0.1)">
       <defs>
        <path id="TimesNewRomanPS-BoldMT-30" d="M 2966 2119 
Q 2966 1484 2788 934 
Q 2681 597 2501 381 
Q 2322 166 2094 39 
Q 1866 -88 1597 -88 
Q 1291 -88 1044 68 
Q 797 225 606 516 
Q 469 728 366 1081 
Q 231 1559 231 2069 
Q 231 2759 425 3338 
Q 584 3816 909 4070 
Q 1234 4325 1597 4325 
Q 1966 4325 2286 4073 
Q 2606 3822 2756 3397 
Q 2966 2813 2966 2119 
z
M 2003 2125 
Q 2003 3238 1991 3422 
Q 1959 3856 1841 4009 
Q 1763 4109 1588 4109 
Q 1453 4109 1375 4034 
Q 1259 3925 1218 3648 
Q 1178 3372 1178 1719 
Q 1178 819 1241 513 
Q 1288 291 1375 216 
Q 1463 141 1606 141 
Q 1763 141 1841 241 
Q 1972 416 1991 781 
L 2003 2125 
z
" transform="scale(0.015625)"/>
       </defs>
       <use xlink:href="#TimesNewRomanPS-BoldMT-30"/>
      </g>
     </g>
    </g>
    <g id="ytick_2">
     <g id="line2d_21">
      <path d="M 44.629688 141.101681 
L 602.249687 141.101681 
" clip-path="url(#pe244a90414)" style="fill: none; stroke-dasharray: 2.59,1.12; stroke-dashoffset: 0; stroke: #bfbfbf; stroke-opacity: 0.45; stroke-width: 0.7"/>
     </g>
     <g id="line2d_22">
      <g>
       <use xlink:href="#m6d728d3288" x="44.629688" y="141.101681" style="stroke: #000000; stroke-width: 0.8"/>
      </g>
     </g>
     <g id="text_2">
      <!-- 10 -->
      <g transform="translate(27.629688 144.412619) scale(0.1 -0.1)">
       <defs>
        <path id="TimesNewRomanPS-BoldMT-31" d="M 2084 4325 
L 2084 859 
Q 2084 469 2118 361 
Q 2153 253 2262 184 
Q 2372 116 2613 116 
L 2709 116 
L 2709 0 
L 478 0 
L 478 116 
L 591 116 
Q 863 116 978 178 
Q 1094 241 1134 350 
Q 1175 459 1175 859 
L 1175 3056 
Q 1175 3350 1147 3423 
Q 1119 3497 1042 3548 
Q 966 3600 866 3600 
Q 706 3600 478 3500 
L 422 3613 
L 1981 4325 
L 2084 4325 
z
" transform="scale(0.015625)"/>
       </defs>
       <use xlink:href="#TimesNewRomanPS-BoldMT-31"/>
       <use xlink:href="#TimesNewRomanPS-BoldMT-30" transform="translate(50 0)"/>
      </g>
     </g>
    </g>
    <g id="ytick_3">
     <g id="line2d_23">
      <path d="M 44.629688 101.188817 
L 602.249687 101.188817 
" clip-path="url(#pe244a90414)" style="fill: none; stroke-dasharray: 2.59,1.12; stroke-dashoffset: 0; stroke: #bfbfbf; stroke-opacity: 0.45; stroke-width: 0.7"/>
     </g>
     <g id="line2d_24">
      <g>
       <use xlink:href="#m6d728d3288" x="44.629688" y="101.188817" style="stroke: #000000; stroke-width: 0.8"/>
      </g>
     </g>
     <g id="text_3">
      <!-- 20 -->
      <g transform="translate(27.629688 104.499754) scale(0.1 -0.1)">
       <defs>
        <path id="TimesNewRomanPS-BoldMT-32" d="M 2650 0 
L 156 0 
L 156 69 
Q 1303 1434 1548 1906 
Q 1794 2378 1794 2828 
Q 1794 3156 1591 3373 
Q 1388 3591 1094 3591 
Q 613 3591 347 3109 
L 231 3150 
Q 400 3750 744 4037 
Q 1088 4325 1538 4325 
Q 1859 4325 2125 4175 
Q 2391 4025 2541 3764 
Q 2691 3503 2691 3275 
Q 2691 2859 2459 2431 
Q 2144 1853 1081 819 
L 1997 819 
Q 2334 819 2436 847 
Q 2538 875 2603 942 
Q 2669 1009 2775 1225 
L 2888 1225 
L 2650 0 
z
" transform="scale(0.015625)"/>
       </defs>
       <use xlink:href="#TimesNewRomanPS-BoldMT-32"/>
       <use xlink:href="#TimesNewRomanPS-BoldMT-30" transform="translate(50 0)"/>
      </g>
     </g>
    </g>
    <g id="ytick_4">
     <g id="line2d_25">
      <path d="M 44.629688 61.275953 
L 602.249687 61.275953 
" clip-path="url(#pe244a90414)" style="fill: none; stroke-dasharray: 2.59,1.12; stroke-dashoffset: 0; stroke: #bfbfbf; stroke-opacity: 0.45; stroke-width: 0.7"/>
     </g>
     <g id="line2d_26">
      <g>
       <use xlink:href="#m6d728d3288" x="44.629688" y="61.275953" style="stroke: #000000; stroke-width: 0.8"/>
      </g>
     </g>
     <g id="text_4">
      <!-- 30 -->
      <g transform="translate(27.629688 64.58689) scale(0.1 -0.1)">
       <defs>
        <path id="TimesNewRomanPS-BoldMT-33" d="M 947 2125 
L 947 2234 
Q 1303 2338 1440 2427 
Q 1578 2516 1678 2698 
Q 1778 2881 1778 3069 
Q 1778 3328 1589 3514 
Q 1400 3700 1119 3700 
Q 681 3700 375 3238 
L 259 3278 
Q 484 3800 836 4062 
Q 1188 4325 1619 4325 
Q 2059 4325 2345 4056 
Q 2631 3788 2631 3428 
Q 2631 3194 2498 2976 
Q 2366 2759 2081 2594 
Q 2447 2416 2639 2155 
Q 2831 1894 2831 1500 
Q 2831 838 2351 373 
Q 1872 -91 1066 -91 
Q 528 -91 281 88 
Q 103 213 103 409 
Q 103 553 206 654 
Q 309 756 444 756 
Q 547 756 638 713 
Q 688 688 992 439 
Q 1297 191 1563 191 
Q 1794 191 1959 373 
Q 2125 556 2125 838 
Q 2125 1266 1825 1627 
Q 1525 1988 947 2125 
z
" transform="scale(0.015625)"/>
       </defs>
       <use xlink:href="#TimesNewRomanPS-BoldMT-33"/>
       <use xlink:href="#TimesNewRomanPS-BoldMT-30" transform="translate(50 0)"/>
      </g>
     </g>
    </g>
    <g id="text_5">
     <!-- Position Error [mm] -->
     <g transform="translate(21.490625 153.261563) rotate(-90) scale(0.1 -0.1)">
      <defs>
       <path id="TimesNewRomanPS-BoldMT-50" d="M 1728 1919 
L 1728 744 
Q 1728 400 1770 311 
Q 1813 222 1920 169 
Q 2028 116 2316 116 
L 2316 0 
L 163 0 
L 163 116 
Q 456 116 561 170 
Q 666 225 708 312 
Q 750 400 750 744 
L 750 3494 
Q 750 3838 708 3927 
Q 666 4016 559 4069 
Q 453 4122 163 4122 
L 163 4238 
L 2009 4238 
Q 2922 4238 3319 3913 
Q 3716 3588 3716 3100 
Q 3716 2688 3459 2394 
Q 3203 2100 2753 1994 
Q 2450 1919 1728 1919 
z
M 1728 3994 
L 1728 2163 
Q 1831 2156 1884 2156 
Q 2266 2156 2472 2382 
Q 2678 2609 2678 3084 
Q 2678 3556 2472 3775 
Q 2266 3994 1856 3994 
L 1728 3994 
z
" transform="scale(0.015625)"/>
       <path id="TimesNewRomanPS-BoldMT-6f" d="M 1594 3009 
Q 1975 3009 2303 2812 
Q 2631 2616 2801 2253 
Q 2972 1891 2972 1459 
Q 2972 838 2656 419 
Q 2275 -88 1603 -88 
Q 944 -88 587 375 
Q 231 838 231 1447 
Q 231 2075 595 2542 
Q 959 3009 1594 3009 
z
M 1606 2788 
Q 1447 2788 1333 2667 
Q 1219 2547 1183 2192 
Q 1147 1838 1147 1206 
Q 1147 872 1191 581 
Q 1225 359 1337 243 
Q 1450 128 1594 128 
Q 1734 128 1828 206 
Q 1950 313 1991 503 
Q 2053 800 2053 1703 
Q 2053 2234 1993 2432 
Q 1934 2631 1819 2722 
Q 1738 2788 1606 2788 
z
" transform="scale(0.015625)"/>
       <path id="TimesNewRomanPS-BoldMT-73" d="M 2063 3003 
L 2109 2006 
L 2003 2006 
Q 1813 2450 1608 2612 
Q 1403 2775 1200 2775 
Q 1072 2775 981 2689 
Q 891 2603 891 2491 
Q 891 2406 953 2328 
Q 1053 2200 1512 1889 
Q 1972 1578 2117 1361 
Q 2263 1144 2263 875 
Q 2263 631 2141 397 
Q 2019 163 1797 37 
Q 1575 -88 1306 -88 
Q 1097 -88 747 44 
Q 653 78 619 78 
Q 516 78 447 -78 
L 344 -78 
L 294 972 
L 400 972 
Q 541 559 786 353 
Q 1031 147 1250 147 
Q 1400 147 1495 239 
Q 1591 331 1591 463 
Q 1591 613 1497 722 
Q 1403 831 1078 1053 
Q 600 1384 459 1559 
Q 253 1816 253 2125 
Q 253 2463 486 2736 
Q 719 3009 1159 3009 
Q 1397 3009 1619 2894 
Q 1703 2847 1756 2847 
Q 1813 2847 1847 2870 
Q 1881 2894 1956 3003 
L 2063 3003 
z
" transform="scale(0.015625)"/>
       <path id="TimesNewRomanPS-BoldMT-69" d="M 919 4338 
Q 1122 4338 1262 4195 
Q 1403 4053 1403 3853 
Q 1403 3653 1261 3512 
Q 1119 3372 919 3372 
Q 719 3372 578 3512 
Q 438 3653 438 3853 
Q 438 4053 578 4195 
Q 719 4338 919 4338 
z
M 1356 2922 
L 1356 606 
Q 1356 297 1428 211 
Q 1500 125 1709 113 
L 1709 0 
L 131 0 
L 131 113 
Q 325 119 419 225 
Q 481 297 481 606 
L 481 2313 
Q 481 2622 409 2708 
Q 338 2794 131 2806 
L 131 2922 
L 1356 2922 
z
" transform="scale(0.015625)"/>
       <path id="TimesNewRomanPS-BoldMT-74" d="M 1375 3991 
L 1375 2922 
L 2069 2922 
L 2069 2613 
L 1375 2613 
L 1375 809 
Q 1375 556 1398 482 
Q 1422 409 1481 364 
Q 1541 319 1591 319 
Q 1794 319 1975 628 
L 2069 559 
Q 1816 -41 1247 -41 
Q 969 -41 776 114 
Q 584 269 531 459 
Q 500 566 500 1034 
L 500 2613 
L 119 2613 
L 119 2722 
Q 513 3000 789 3306 
Q 1066 3613 1272 3991 
L 1375 3991 
z
" transform="scale(0.015625)"/>
       <path id="TimesNewRomanPS-BoldMT-6e" d="M 1409 2922 
L 1409 2544 
Q 1634 2788 1840 2898 
Q 2047 3009 2284 3009 
Q 2569 3009 2756 2851 
Q 2944 2694 3006 2459 
Q 3056 2281 3056 1775 
L 3056 638 
Q 3056 300 3117 217 
Q 3178 134 3372 113 
L 3372 0 
L 1894 0 
L 1894 113 
Q 2059 134 2131 250 
Q 2181 328 2181 638 
L 2181 1938 
Q 2181 2297 2153 2390 
Q 2125 2484 2058 2536 
Q 1991 2588 1909 2588 
Q 1641 2588 1409 2203 
L 1409 638 
Q 1409 309 1470 221 
Q 1531 134 1697 113 
L 1697 0 
L 219 0 
L 219 113 
Q 403 131 481 231 
Q 534 300 534 638 
L 534 2288 
Q 534 2619 473 2700 
Q 413 2781 219 2806 
L 219 2922 
L 1409 2922 
z
" transform="scale(0.015625)"/>
       <path id="TimesNewRomanPS-BoldMT-20" transform="scale(0.015625)"/>
       <path id="TimesNewRomanPS-BoldMT-45" d="M 1744 3994 
L 1744 2269 
L 1828 2269 
Q 2231 2269 2412 2522 
Q 2594 2775 2644 3269 
L 2763 3269 
L 2763 1050 
L 2644 1050 
Q 2606 1413 2486 1644 
Q 2366 1875 2206 1954 
Q 2047 2034 1744 2034 
L 1744 841 
Q 1744 491 1773 412 
Q 1803 334 1884 284 
Q 1966 234 2147 234 
L 2400 234 
Q 2994 234 3351 509 
Q 3709 784 3866 1347 
L 3981 1347 
L 3791 0 
L 128 0 
L 128 116 
L 269 116 
Q 453 116 566 181 
Q 647 225 691 331 
Q 725 406 725 725 
L 725 3513 
Q 725 3800 709 3866 
Q 678 3975 594 4034 
Q 475 4122 269 4122 
L 128 4122 
L 128 4238 
L 3675 4238 
L 3675 2984 
L 3556 2984 
Q 3466 3444 3302 3644 
Q 3138 3844 2838 3938 
Q 2663 3994 2181 3994 
L 1744 3994 
z
" transform="scale(0.015625)"/>
       <path id="TimesNewRomanPS-BoldMT-72" d="M 1428 2922 
L 1428 2259 
Q 1719 2713 1937 2861 
Q 2156 3009 2359 3009 
Q 2534 3009 2639 2901 
Q 2744 2794 2744 2597 
Q 2744 2388 2642 2272 
Q 2541 2156 2397 2156 
Q 2231 2156 2109 2262 
Q 1988 2369 1966 2381 
Q 1934 2400 1894 2400 
Q 1803 2400 1722 2331 
Q 1594 2225 1528 2028 
Q 1428 1725 1428 1359 
L 1428 688 
L 1431 513 
Q 1431 334 1453 284 
Q 1491 200 1564 161 
Q 1638 122 1813 113 
L 1813 0 
L 234 0 
L 234 113 
Q 425 128 492 217 
Q 559 306 559 688 
L 559 2303 
Q 559 2553 534 2622 
Q 503 2709 443 2750 
Q 384 2791 234 2806 
L 234 2922 
L 1428 2922 
z
" transform="scale(0.015625)"/>
       <path id="TimesNewRomanPS-BoldMT-5b" d="M 669 -1169 
L 669 4238 
L 1925 4238 
L 1925 4106 
L 1784 4106 
Q 1578 4106 1508 4064 
Q 1438 4022 1402 3939 
Q 1366 3856 1366 3541 
L 1366 -494 
Q 1366 -794 1378 -838 
Q 1406 -950 1482 -1003 
Q 1559 -1056 1784 -1056 
L 1925 -1056 
L 1925 -1169 
L 669 -1169 
z
" transform="scale(0.015625)"/>
       <path id="TimesNewRomanPS-BoldMT-6d" d="M 1428 2922 
L 1428 2538 
Q 1669 2800 1873 2904 
Q 2078 3009 2322 3009 
Q 2603 3009 2793 2878 
Q 2984 2747 3088 2478 
Q 3338 2759 3567 2884 
Q 3797 3009 4047 3009 
Q 4350 3009 4529 2870 
Q 4709 2731 4779 2517 
Q 4850 2303 4850 1834 
L 4850 638 
Q 4850 300 4911 219 
Q 4972 138 5166 113 
L 5166 0 
L 3656 0 
L 3656 113 
Q 3834 128 3919 250 
Q 3975 334 3975 638 
L 3975 1894 
Q 3975 2284 3944 2390 
Q 3913 2497 3845 2548 
Q 3778 2600 3688 2600 
Q 3553 2600 3415 2501 
Q 3278 2403 3138 2206 
L 3138 638 
Q 3138 322 3191 241 
Q 3263 125 3466 113 
L 3466 0 
L 1953 0 
L 1953 113 
Q 2075 119 2145 173 
Q 2216 228 2239 304 
Q 2263 381 2263 638 
L 2263 1894 
Q 2263 2291 2231 2391 
Q 2200 2491 2126 2547 
Q 2053 2603 1969 2603 
Q 1844 2603 1741 2538 
Q 1594 2441 1428 2206 
L 1428 638 
Q 1428 328 1489 229 
Q 1550 131 1744 113 
L 1744 0 
L 238 0 
L 238 113 
Q 422 131 500 231 
Q 553 300 553 638 
L 553 2288 
Q 553 2619 492 2700 
Q 431 2781 238 2806 
L 238 2922 
L 1428 2922 
z
" transform="scale(0.015625)"/>
       <path id="TimesNewRomanPS-BoldMT-5d" d="M 1466 4238 
L 1466 -1169 
L 209 -1169 
L 209 -1050 
L 350 -1050 
Q 556 -1050 626 -1009 
Q 697 -969 733 -884 
Q 769 -800 769 -488 
L 769 3550 
Q 769 3850 756 3894 
Q 728 4003 651 4058 
Q 575 4113 350 4113 
L 209 4113 
L 209 4238 
L 1466 4238 
z
" transform="scale(0.015625)"/>
      </defs>
      <use xlink:href="#TimesNewRomanPS-BoldMT-50"/>
      <use xlink:href="#TimesNewRomanPS-BoldMT-6f" transform="translate(61.083984 0)"/>
      <use xlink:href="#TimesNewRomanPS-BoldMT-73" transform="translate(111.083984 0)"/>
      <use xlink:href="#TimesNewRomanPS-BoldMT-69" transform="translate(150 0)"/>
      <use xlink:href="#TimesNewRomanPS-BoldMT-74" transform="translate(177.783203 0)"/>
      <use xlink:href="#TimesNewRomanPS-BoldMT-69" transform="translate(211.083984 0)"/>
      <use xlink:href="#TimesNewRomanPS-BoldMT-6f" transform="translate(238.867188 0)"/>
      <use xlink:href="#TimesNewRomanPS-BoldMT-6e" transform="translate(288.867188 0)"/>
      <use xlink:href="#TimesNewRomanPS-BoldMT-20" transform="translate(344.482422 0)"/>
      <use xlink:href="#TimesNewRomanPS-BoldMT-45" transform="translate(369.482422 0)"/>
      <use xlink:href="#TimesNewRomanPS-BoldMT-72" transform="translate(436.181641 0)"/>
      <use xlink:href="#TimesNewRomanPS-BoldMT-72" transform="translate(480.566406 0)"/>
      <use xlink:href="#TimesNewRomanPS-BoldMT-6f" transform="translate(523.201172 0)"/>
      <use xlink:href="#TimesNewRomanPS-BoldMT-72" transform="translate(573.201172 0)"/>
      <use xlink:href="#TimesNewRomanPS-BoldMT-20" transform="translate(615.835938 0)"/>
      <use xlink:href="#TimesNewRomanPS-BoldMT-5b" transform="translate(640.835938 0)"/>
      <use xlink:href="#TimesNewRomanPS-BoldMT-6d" transform="translate(674.136719 0)"/>
      <use xlink:href="#TimesNewRomanPS-BoldMT-6d" transform="translate(757.4375 0)"/>
      <use xlink:href="#TimesNewRomanPS-BoldMT-5d" transform="translate(840.738281 0)"/>
     </g>
    </g>
   </g>
   <g id="line2d_27">
    <path d="M 69.976051 181.014545 
L 79.612488 180.740703 
L 88.488153 180.512289 
L 92.292009 180.150409 
L 96.095866 179.575031 
L 99.899722 178.784406 
L 103.703579 177.771624 
L 107.507435 176.528421 
L 111.311291 175.047448 
L 115.115148 173.323143 
L 118.919004 171.352026 
L 122.722861 169.132783 
L 126.526717 166.666239 
L 130.584164 163.765971 
L 134.641611 160.593612 
L 138.952649 156.934234 
L 143.517276 152.749325 
L 148.081904 148.263287 
L 152.900122 143.22491 
L 158.225521 137.327731 
L 164.058101 130.522642 
L 170.651452 122.470931 
L 178.766346 112.182801 
L 204.37898 79.411811 
L 210.21156 72.464545 
L 215.283368 66.751491 
L 219.847996 61.9283 
L 224.159034 57.693256 
L 228.21648 54.024472 
L 232.020337 50.88916 
L 235.570603 48.246496 
L 238.867279 46.050354 
L 242.163954 44.11201 
L 245.46063 42.438849 
L 248.503715 41.134429 
L 251.5468 40.063172 
L 254.589885 39.22614 
L 257.632971 38.622826 
L 260.676056 38.251162 
L 263.719141 38.107553 
L 266.762226 38.186927 
L 269.805311 38.482813 
L 273.101987 39.038627 
L 276.398662 39.827912 
L 279.695338 40.837733 
L 283.245604 42.155579 
L 287.049461 43.811487 
L 291.106907 45.828698 
L 295.417945 48.221841 
L 300.236163 51.15586 
L 305.815153 54.829531 
L 312.408504 59.453931 
L 321.284169 65.973559 
L 348.418345 86.074025 
L 358.815553 93.402332 
L 369.466351 100.637891 
L 381.385101 108.462957 
L 395.332575 117.348113 
L 409.533639 126.13593 
L 420.945208 132.948222 
L 430.074464 138.14964 
L 437.935767 142.374978 
L 444.782709 145.804968 
L 450.868879 148.613803 
L 456.95505 151.172411 
L 463.294811 153.592674 
L 469.888162 155.872571 
L 476.988694 158.086544 
L 484.342816 160.144832 
L 492.20412 162.110953 
L 500.572604 163.969259 
L 509.448269 165.708028 
L 518.831115 167.319251 
L 528.974732 168.83359 
L 539.879121 170.234664 
L 551.797871 171.537169 
L 564.730983 172.722933 
L 576.903324 173.657743 
L 576.903324 173.657743 
" clip-path="url(#pe244a90414)" style="fill: none; stroke: #1f4e79; stroke-width: 2.2; stroke-linecap: square"/>
   </g>
   <g id="patch_3">
    <path d="M 44.629688 188.16 
L 44.629688 30.96 
" style="fill: none; stroke: #000000; stroke-width: 0.8; stroke-linejoin: miter; stroke-linecap: square"/>
   </g>
   <g id="patch_4">
    <path d="M 602.249687 188.16 
L 602.249687 30.96 
" style="fill: none; stroke: #000000; stroke-width: 0.8; stroke-linejoin: miter; stroke-linecap: square"/>
   </g>
   <g id="patch_5">
    <path d="M 44.629688 188.16 
L 602.249687 188.16 
" style="fill: none; stroke: #000000; stroke-width: 0.8; stroke-linejoin: miter; stroke-linecap: square"/>
   </g>
   <g id="patch_6">
    <path d="M 44.629688 30.96 
L 602.249687 30.96 
" style="fill: none; stroke: #000000; stroke-width: 0.8; stroke-linejoin: miter; stroke-linecap: square"/>
   </g>
  </g>
  <g id="axes_2">
   <g id="patch_7">
    <path d="M 44.629688 359.66 
L 602.249687 359.66 
L 602.249687 202.46 
L 44.629688 202.46 
z
" style="fill: #ffffff"/>
   </g>
   <g id="matplotlib.axis_3">
    <g id="xtick_10">
     <g id="line2d_28">
      <path d="M 69.976051 359.66 
L 69.976051 202.46 
" clip-path="url(#p2381382105)" style="fill: none; stroke-dasharray: 2.59,1.12; stroke-dashoffset: 0; stroke: #bfbfbf; stroke-opacity: 0.45; stroke-width: 0.7"/>
     </g>
     <g id="line2d_29">
      <g>
       <use xlink:href="#mb0a712acec" x="69.976051" y="359.66" style="stroke: #000000; stroke-width: 0.8"/>
      </g>
     </g>
    </g>
    <g id="xtick_11">
     <g id="line2d_30">
      <path d="M 133.373659 359.66 
L 133.373659 202.46 
" clip-path="url(#p2381382105)" style="fill: none; stroke-dasharray: 2.59,1.12; stroke-dashoffset: 0; stroke: #bfbfbf; stroke-opacity: 0.45; stroke-width: 0.7"/>
     </g>
     <g id="line2d_31">
      <g>
       <use xlink:href="#mb0a712acec" x="133.373659" y="359.66" style="stroke: #000000; stroke-width: 0.8"/>
      </g>
     </g>
    </g>
    <g id="xtick_12">
     <g id="line2d_32">
      <path d="M 196.771267 359.66 
L 196.771267 202.46 
" clip-path="url(#p2381382105)" style="fill: none; stroke-dasharray: 2.59,1.12; stroke-dashoffset: 0; stroke: #bfbfbf; stroke-opacity: 0.45; stroke-width: 0.7"/>
     </g>
     <g id="line2d_33">
      <g>
       <use xlink:href="#mb0a712acec" x="196.771267" y="359.66" style="stroke: #000000; stroke-width: 0.8"/>
      </g>
     </g>
    </g>
    <g id="xtick_13">
     <g id="line2d_34">
      <path d="M 260.168875 359.66 
L 260.168875 202.46 
" clip-path="url(#p2381382105)" style="fill: none; stroke-dasharray: 2.59,1.12; stroke-dashoffset: 0; stroke: #bfbfbf; stroke-opacity: 0.45; stroke-width: 0.7"/>
     </g>
     <g id="line2d_35">
      <g>
       <use xlink:href="#mb0a712acec" x="260.168875" y="359.66" style="stroke: #000000; stroke-width: 0.8"/>
      </g>
     </g>
    </g>
    <g id="xtick_14">
     <g id="line2d_36">
      <path d="M 323.566483 359.66 
L 323.566483 202.46 
" clip-path="url(#p2381382105)" style="fill: none; stroke-dasharray: 2.59,1.12; stroke-dashoffset: 0; stroke: #bfbfbf; stroke-opacity: 0.45; stroke-width: 0.7"/>
     </g>
     <g id="line2d_37">
      <g>
       <use xlink:href="#mb0a712acec" x="323.566483" y="359.66" style="stroke: #000000; stroke-width: 0.8"/>
      </g>
     </g>
    </g>
    <g id="xtick_15">
     <g id="line2d_38">
      <path d="M 386.964091 359.66 
L 386.964091 202.46 
" clip-path="url(#p2381382105)" style="fill: none; stroke-dasharray: 2.59,1.12; stroke-dashoffset: 0; stroke: #bfbfbf; stroke-opacity: 0.45; stroke-width: 0.7"/>
     </g>
     <g id="line2d_39">
      <g>
       <use xlink:href="#mb0a712acec" x="386.964091" y="359.66" style="stroke: #000000; stroke-width: 0.8"/>
      </g>
     </g>
    </g>
    <g id="xtick_16">
     <g id="line2d_40">
      <path d="M 450.361699 359.66 
L 450.361699 202.46 
" clip-path="url(#p2381382105)" style="fill: none; stroke-dasharray: 2.59,1.12; stroke-dashoffset: 0; stroke: #bfbfbf; stroke-opacity: 0.45; stroke-width: 0.7"/>
     </g>
     <g id="line2d_41">
      <g>
       <use xlink:href="#mb0a712acec" x="450.361699" y="359.66" style="stroke: #000000; stroke-width: 0.8"/>
      </g>
     </g>
    </g>
    <g id="xtick_17">
     <g id="line2d_42">
      <path d="M 513.759306 359.66 
L 513.759306 202.46 
" clip-path="url(#p2381382105)" style="fill: none; stroke-dasharray: 2.59,1.12; stroke-dashoffset: 0; stroke: #bfbfbf; stroke-opacity: 0.45; stroke-width: 0.7"/>
     </g>
     <g id="line2d_43">
      <g>
       <use xlink:href="#mb0a712acec" x="513.759306" y="359.66" style="stroke: #000000; stroke-width: 0.8"/>
      </g>
     </g>
    </g>
    <g id="xtick_18">
     <g id="line2d_44">
      <path d="M 577.156914 359.66 
L 577.156914 202.46 
" clip-path="url(#p2381382105)" style="fill: none; stroke-dasharray: 2.59,1.12; stroke-dashoffset: 0; stroke: #bfbfbf; stroke-opacity: 0.45; stroke-width: 0.7"/>
     </g>
     <g id="line2d_45">
      <g>
       <use xlink:href="#mb0a712acec" x="577.156914" y="359.66" style="stroke: #000000; stroke-width: 0.8"/>
      </g>
     </g>
    </g>
   </g>
   <g id="matplotlib.axis_4">
    <g id="ytick_5">
     <g id="line2d_46">
      <path d="M 44.629688 352.514548 
L 602.249687 352.514548 
" clip-path="url(#p2381382105)" style="fill: none; stroke-dasharray: 2.59,1.12; stroke-dashoffset: 0; stroke: #bfbfbf; stroke-opacity: 0.45; stroke-width: 0.7"/>
     </g>
     <g id="line2d_47">
      <g>
       <use xlink:href="#m6d728d3288" x="44.629688" y="352.514548" style="stroke: #000000; stroke-width: 0.8"/>
      </g>
     </g>
     <g id="text_6">
      <!-- 0.0 -->
      <g transform="translate(25.129688 355.825485) scale(0.1 -0.1)">
       <defs>
        <path id="TimesNewRomanPS-BoldMT-2e" d="M 800 963 
Q 1019 963 1170 809 
Q 1322 656 1322 441 
Q 1322 225 1169 73 
Q 1016 -78 800 -78 
Q 584 -78 432 73 
Q 281 225 281 441 
Q 281 656 432 809 
Q 584 963 800 963 
z
" transform="scale(0.015625)"/>
       </defs>
       <use xlink:href="#TimesNewRomanPS-BoldMT-30"/>
       <use xlink:href="#TimesNewRomanPS-BoldMT-2e" transform="translate(50 0)"/>
       <use xlink:href="#TimesNewRomanPS-BoldMT-30" transform="translate(75 0)"/>
      </g>
     </g>
    </g>
    <g id="ytick_6">
     <g id="line2d_48">
      <path d="M 44.629688 328.950074 
L 602.249687 328.950074 
" clip-path="url(#p2381382105)" style="fill: none; stroke-dasharray: 2.59,1.12; stroke-dashoffset: 0; stroke: #bfbfbf; stroke-opacity: 0.45; stroke-width: 0.7"/>
     </g>
     <g id="line2d_49">
      <g>
       <use xlink:href="#m6d728d3288" x="44.629688" y="328.950074" style="stroke: #000000; stroke-width: 0.8"/>
      </g>
     </g>
     <g id="text_7">
      <!-- 0.5 -->
      <g transform="translate(25.129688 332.261011) scale(0.1 -0.1)">
       <defs>
        <path id="TimesNewRomanPS-BoldMT-35" d="M 975 4238 
L 2959 4238 
L 2644 3431 
L 975 3431 
L 816 3009 
Q 1894 2969 2475 2472 
Q 2953 2063 2953 1453 
Q 2953 1063 2731 689 
Q 2509 316 2106 114 
Q 1703 -88 1222 -88 
Q 703 -88 425 106 
Q 231 244 231 419 
Q 231 553 332 656 
Q 434 759 569 759 
Q 691 759 816 709 
Q 941 659 1244 447 
Q 1434 316 1572 266 
Q 1669 228 1791 228 
Q 2047 228 2226 415 
Q 2406 603 2406 866 
Q 2406 1416 1856 1759 
Q 1306 2103 469 2103 
Q 384 2103 216 2100 
L 975 4238 
z
" transform="scale(0.015625)"/>
       </defs>
       <use xlink:href="#TimesNewRomanPS-BoldMT-30"/>
       <use xlink:href="#TimesNewRomanPS-BoldMT-2e" transform="translate(50 0)"/>
       <use xlink:href="#TimesNewRomanPS-BoldMT-35" transform="translate(75 0)"/>
      </g>
     </g>
    </g>
    <g id="ytick_7">
     <g id="line2d_50">
      <path d="M 44.629688 305.385599 
L 602.249687 305.385599 
" clip-path="url(#p2381382105)" style="fill: none; stroke-dasharray: 2.59,1.12; stroke-dashoffset: 0; stroke: #bfbfbf; stroke-opacity: 0.45; stroke-width: 0.7"/>
     </g>
     <g id="line2d_51">
      <g>
       <use xlink:href="#m6d728d3288" x="44.629688" y="305.385599" style="stroke: #000000; stroke-width: 0.8"/>
      </g>
     </g>
     <g id="text_8">
      <!-- 1.0 -->
      <g transform="translate(25.129688 308.696537) scale(0.1 -0.1)">
       <use xlink:href="#TimesNewRomanPS-BoldMT-31"/>
       <use xlink:href="#TimesNewRomanPS-BoldMT-2e" transform="translate(50 0)"/>
       <use xlink:href="#TimesNewRomanPS-BoldMT-30" transform="translate(75 0)"/>
      </g>
     </g>
    </g>
    <g id="ytick_8">
     <g id="line2d_52">
      <path d="M 44.629688 281.821125 
L 602.249687 281.821125 
" clip-path="url(#p2381382105)" style="fill: none; stroke-dasharray: 2.59,1.12; stroke-dashoffset: 0; stroke: #bfbfbf; stroke-opacity: 0.45; stroke-width: 0.7"/>
     </g>
     <g id="line2d_53">
      <g>
       <use xlink:href="#m6d728d3288" x="44.629688" y="281.821125" style="stroke: #000000; stroke-width: 0.8"/>
      </g>
     </g>
     <g id="text_9">
      <!-- 1.5 -->
      <g transform="translate(25.129688 285.132063) scale(0.1 -0.1)">
       <use xlink:href="#TimesNewRomanPS-BoldMT-31"/>
       <use xlink:href="#TimesNewRomanPS-BoldMT-2e" transform="translate(50 0)"/>
       <use xlink:href="#TimesNewRomanPS-BoldMT-35" transform="translate(75 0)"/>
      </g>
     </g>
    </g>
    <g id="ytick_9">
     <g id="line2d_54">
      <path d="M 44.629688 258.256651 
L 602.249687 258.256651 
" clip-path="url(#p2381382105)" style="fill: none; stroke-dasharray: 2.59,1.12; stroke-dashoffset: 0; stroke: #bfbfbf; stroke-opacity: 0.45; stroke-width: 0.7"/>
     </g>
     <g id="line2d_55">
      <g>
       <use xlink:href="#m6d728d3288" x="44.629688" y="258.256651" style="stroke: #000000; stroke-width: 0.8"/>
      </g>
     </g>
     <g id="text_10">
      <!-- 2.0 -->
      <g transform="translate(25.129688 261.567589) scale(0.1 -0.1)">
       <use xlink:href="#TimesNewRomanPS-BoldMT-32"/>
       <use xlink:href="#TimesNewRomanPS-BoldMT-2e" transform="translate(50 0)"/>
       <use xlink:href="#TimesNewRomanPS-BoldMT-30" transform="translate(75 0)"/>
      </g>
     </g>
    </g>
    <g id="ytick_10">
     <g id="line2d_56">
      <path d="M 44.629688 234.692177 
L 602.249687 234.692177 
" clip-path="url(#p2381382105)" style="fill: none; stroke-dasharray: 2.59,1.12; stroke-dashoffset: 0; stroke: #bfbfbf; stroke-opacity: 0.45; stroke-width: 0.7"/>
     </g>
     <g id="line2d_57">
      <g>
       <use xlink:href="#m6d728d3288" x="44.629688" y="234.692177" style="stroke: #000000; stroke-width: 0.8"/>
      </g>
     </g>
     <g id="text_11">
      <!-- 2.5 -->
      <g transform="translate(25.129688 238.003114) scale(0.1 -0.1)">
       <use xlink:href="#TimesNewRomanPS-BoldMT-32"/>
       <use xlink:href="#TimesNewRomanPS-BoldMT-2e" transform="translate(50 0)"/>
       <use xlink:href="#TimesNewRomanPS-BoldMT-35" transform="translate(75 0)"/>
      </g>
     </g>
    </g>
    <g id="ytick_11">
     <g id="line2d_58">
      <path d="M 44.629688 211.127703 
L 602.249687 211.127703 
" clip-path="url(#p2381382105)" style="fill: none; stroke-dasharray: 2.59,1.12; stroke-dashoffset: 0; stroke: #bfbfbf; stroke-opacity: 0.45; stroke-width: 0.7"/>
     </g>
     <g id="line2d_59">
      <g>
       <use xlink:href="#m6d728d3288" x="44.629688" y="211.127703" style="stroke: #000000; stroke-width: 0.8"/>
      </g>
     </g>
     <g id="text_12">
      <!-- 3.0 -->
      <g transform="translate(25.129688 214.43864) scale(0.1 -0.1)">
       <use xlink:href="#TimesNewRomanPS-BoldMT-33"/>
       <use xlink:href="#TimesNewRomanPS-BoldMT-2e" transform="translate(50 0)"/>
       <use xlink:href="#TimesNewRomanPS-BoldMT-30" transform="translate(75 0)"/>
      </g>
     </g>
    </g>
    <g id="text_13">
     <!-- Rotation Error [deg] -->
     <g transform="translate(18.971875 325.318594) rotate(-90) scale(0.1 -0.1)">
      <defs>
       <path id="TimesNewRomanPS-BoldMT-52" d="M 1700 1931 
L 1700 744 
Q 1700 400 1742 311 
Q 1784 222 1890 169 
Q 1997 116 2288 116 
L 2288 0 
L 119 0 
L 119 116 
Q 413 116 517 170 
Q 622 225 664 312 
Q 706 400 706 744 
L 706 3494 
Q 706 3838 664 3927 
Q 622 4016 515 4069 
Q 409 4122 119 4122 
L 119 4238 
L 2088 4238 
Q 2856 4238 3212 4131 
Q 3569 4025 3794 3739 
Q 4019 3453 4019 3069 
Q 4019 2600 3681 2294 
Q 3466 2100 3078 2003 
L 4097 569 
Q 4297 291 4381 222 
Q 4509 125 4678 116 
L 4678 0 
L 3344 0 
L 1978 1931 
L 1700 1931 
z
M 1700 4009 
L 1700 2153 
L 1878 2153 
Q 2313 2153 2528 2233 
Q 2744 2313 2867 2520 
Q 2991 2728 2991 3063 
Q 2991 3547 2764 3778 
Q 2538 4009 2034 4009 
L 1700 4009 
z
" transform="scale(0.015625)"/>
       <path id="TimesNewRomanPS-BoldMT-61" d="M 1828 431 
Q 1294 -41 869 -41 
Q 619 -41 453 123 
Q 288 288 288 534 
Q 288 869 575 1136 
Q 863 1403 1828 1847 
L 1828 2141 
Q 1828 2472 1792 2558 
Q 1756 2644 1656 2708 
Q 1556 2772 1431 2772 
Q 1228 2772 1097 2681 
Q 1016 2625 1016 2550 
Q 1016 2484 1103 2388 
Q 1222 2253 1222 2128 
Q 1222 1975 1108 1867 
Q 994 1759 809 1759 
Q 613 1759 480 1878 
Q 347 1997 347 2156 
Q 347 2381 525 2586 
Q 703 2791 1022 2900 
Q 1341 3009 1684 3009 
Q 2100 3009 2342 2832 
Q 2584 2656 2656 2450 
Q 2700 2319 2700 1847 
L 2700 713 
Q 2700 513 2715 461 
Q 2731 409 2762 384 
Q 2794 359 2834 359 
Q 2916 359 3000 475 
L 3094 400 
Q 2938 169 2770 64 
Q 2603 -41 2391 -41 
Q 2141 -41 2000 76 
Q 1859 194 1828 431 
z
M 1828 659 
L 1828 1638 
Q 1450 1416 1266 1163 
Q 1144 994 1144 822 
Q 1144 678 1247 569 
Q 1325 484 1466 484 
Q 1622 484 1828 659 
z
" transform="scale(0.015625)"/>
       <path id="TimesNewRomanPS-BoldMT-64" d="M 3056 4238 
L 3056 875 
Q 3056 534 3075 472 
Q 3100 369 3170 319 
Q 3241 269 3416 256 
L 3416 153 
L 2181 -88 
L 2181 375 
Q 1959 106 1786 9 
Q 1613 -88 1394 -88 
Q 834 -88 509 413 
Q 247 819 247 1409 
Q 247 1881 409 2254 
Q 572 2628 855 2818 
Q 1138 3009 1463 3009 
Q 1672 3009 1834 2928 
Q 1997 2847 2181 2644 
L 2181 3525 
Q 2181 3859 2153 3928 
Q 2116 4019 2041 4062 
Q 1966 4106 1759 4106 
L 1759 4238 
L 3056 4238 
z
M 2181 2256 
Q 1950 2700 1616 2700 
Q 1500 2700 1425 2638 
Q 1309 2541 1236 2297 
Q 1163 2053 1163 1550 
Q 1163 997 1244 731 
Q 1325 466 1466 347 
Q 1538 288 1663 288 
Q 1938 288 2181 719 
L 2181 2256 
z
" transform="scale(0.015625)"/>
       <path id="TimesNewRomanPS-BoldMT-65" d="M 2691 1566 
L 1088 1566 
Q 1116 984 1397 647 
Q 1613 388 1916 388 
Q 2103 388 2256 492 
Q 2409 597 2584 869 
L 2691 800 
Q 2453 316 2165 114 
Q 1878 -88 1500 -88 
Q 850 -88 516 413 
Q 247 816 247 1413 
Q 247 2144 642 2576 
Q 1038 3009 1569 3009 
Q 2013 3009 2339 2645 
Q 2666 2281 2691 1566 
z
M 1922 1775 
Q 1922 2278 1867 2465 
Q 1813 2653 1697 2750 
Q 1631 2806 1522 2806 
Q 1359 2806 1256 2647 
Q 1072 2369 1072 1884 
L 1072 1775 
L 1922 1775 
z
" transform="scale(0.015625)"/>
       <path id="TimesNewRomanPS-BoldMT-67" d="M 2091 2888 
L 3075 2888 
L 3075 2544 
L 2516 2544 
Q 2669 2391 2728 2266 
Q 2803 2097 2803 1913 
Q 2803 1600 2629 1370 
Q 2456 1141 2157 1011 
Q 1859 881 1628 881 
Q 1609 881 1253 897 
Q 1113 897 1017 805 
Q 922 713 922 584 
Q 922 472 1008 400 
Q 1094 328 1288 328 
L 1828 334 
Q 2484 334 2731 191 
Q 3084 -9 3084 -425 
Q 3084 -691 2921 -908 
Q 2759 -1125 2494 -1228 
Q 2091 -1381 1566 -1381 
Q 1172 -1381 847 -1304 
Q 522 -1228 381 -1092 
Q 241 -956 241 -806 
Q 241 -663 348 -548 
Q 456 -434 750 -356 
Q 344 -156 344 200 
Q 344 416 509 619 
Q 675 822 1034 972 
Q 616 1125 428 1375 
Q 241 1625 241 1953 
Q 241 2381 591 2695 
Q 941 3009 1491 3009 
Q 1781 3009 2091 2888 
z
M 1550 2816 
Q 1369 2816 1244 2633 
Q 1119 2450 1119 1875 
Q 1119 1409 1242 1236 
Q 1366 1063 1534 1063 
Q 1722 1063 1847 1234 
Q 1972 1406 1972 1903 
Q 1972 2463 1831 2666 
Q 1731 2816 1550 2816 
z
M 1366 -431 
Q 1047 -431 944 -484 
Q 766 -581 766 -747 
Q 766 -906 950 -1036 
Q 1134 -1166 1644 -1166 
Q 2078 -1166 2326 -1050 
Q 2575 -934 2575 -725 
Q 2575 -647 2528 -594 
Q 2444 -500 2273 -465 
Q 2103 -431 1366 -431 
z
" transform="scale(0.015625)"/>
      </defs>
      <use xlink:href="#TimesNewRomanPS-BoldMT-52"/>
      <use xlink:href="#TimesNewRomanPS-BoldMT-6f" transform="translate(72.216797 0)"/>
      <use xlink:href="#TimesNewRomanPS-BoldMT-74" transform="translate(122.216797 0)"/>
      <use xlink:href="#TimesNewRomanPS-BoldMT-61" transform="translate(155.517578 0)"/>
      <use xlink:href="#TimesNewRomanPS-BoldMT-74" transform="translate(205.517578 0)"/>
      <use xlink:href="#TimesNewRomanPS-BoldMT-69" transform="translate(238.818359 0)"/>
      <use xlink:href="#TimesNewRomanPS-BoldMT-6f" transform="translate(266.601562 0)"/>
      <use xlink:href="#TimesNewRomanPS-BoldMT-6e" transform="translate(316.601562 0)"/>
      <use xlink:href="#TimesNewRomanPS-BoldMT-20" transform="translate(372.216797 0)"/>
      <use xlink:href="#TimesNewRomanPS-BoldMT-45" transform="translate(397.216797 0)"/>
      <use xlink:href="#TimesNewRomanPS-BoldMT-72" transform="translate(463.916016 0)"/>
      <use xlink:href="#TimesNewRomanPS-BoldMT-72" transform="translate(508.300781 0)"/>
      <use xlink:href="#TimesNewRomanPS-BoldMT-6f" transform="translate(550.935547 0)"/>
      <use xlink:href="#TimesNewRomanPS-BoldMT-72" transform="translate(600.935547 0)"/>
      <use xlink:href="#TimesNewRomanPS-BoldMT-20" transform="translate(643.570312 0)"/>
      <use xlink:href="#TimesNewRomanPS-BoldMT-5b" transform="translate(668.570312 0)"/>
      <use xlink:href="#TimesNewRomanPS-BoldMT-64" transform="translate(701.871094 0)"/>
      <use xlink:href="#TimesNewRomanPS-BoldMT-65" transform="translate(757.486328 0)"/>
      <use xlink:href="#TimesNewRomanPS-BoldMT-67" transform="translate(801.871094 0)"/>
      <use xlink:href="#TimesNewRomanPS-BoldMT-5d" transform="translate(851.871094 0)"/>
     </g>
    </g>
   </g>
   <g id="line2d_60">
    <path d="M 69.976051 352.514545 
L 85.191477 352.292123 
L 91.531238 351.947428 
L 97.110227 351.427972 
L 102.435626 350.704912 
L 107.253845 349.832922 
L 112.072063 348.732519 
L 116.636691 347.462565 
L 121.201318 345.957122 
L 125.512356 344.308111 
L 129.823393 342.42936 
L 134.13443 340.313397 
L 138.445468 337.954142 
L 142.756505 335.346956 
L 147.067542 332.488726 
L 151.63217 329.187135 
L 156.196798 325.602935 
L 160.761426 321.739101 
L 165.579644 317.363667 
L 170.651452 312.440015 
L 175.723261 307.207541 
L 181.302251 301.123127 
L 187.388421 294.138748 
L 194.235363 285.928159 
L 203.111028 274.910737 
L 220.862358 252.791051 
L 227.202119 245.293847 
L 232.527518 239.32418 
L 237.345736 234.251651 
L 241.656773 230.024596 
L 245.71422 226.348881 
L 249.518077 223.194194 
L 253.068343 220.521838 
L 256.618609 218.125905 
L 259.915284 216.158158 
L 263.21196 214.444752 
L 266.508636 212.990195 
L 269.551721 211.879363 
L 272.594806 210.991382 
L 275.637891 210.324971 
L 278.680976 209.877364 
L 281.724062 209.644382 
L 284.767147 209.620522 
L 288.063822 209.822844 
L 291.360498 210.252718 
L 294.657174 210.898888 
L 298.20744 211.822506 
L 302.011296 213.055897 
L 305.815153 214.520767 
L 309.872599 216.313962 
L 314.437227 218.583664 
L 319.255445 221.230079 
L 324.580844 224.405552 
L 330.667015 228.29262 
L 338.021137 233.263535 
L 347.403983 239.893016 
L 361.858638 250.41589 
L 395.078984 274.654964 
L 409.533639 284.900508 
L 420.691618 292.546818 
L 429.820874 298.544395 
L 437.682177 303.453539 
L 444.782709 307.62783 
L 451.12247 311.100868 
L 457.20864 314.180882 
L 463.548401 317.135449 
L 470.141752 319.95351 
L 476.735103 322.531844 
L 483.582045 324.976051 
L 490.682577 327.280832 
L 498.29029 329.513654 
L 506.151593 331.588122 
L 514.520078 333.562641 
L 523.395743 335.421503 
L 532.778589 337.153123 
L 542.668616 338.749882 
L 553.319414 340.240838 
L 564.730983 341.611131 
L 576.903324 342.851584 
L 576.903324 342.851584 
" clip-path="url(#p2381382105)" style="fill: none; stroke: #c55a11; stroke-width: 2.2; stroke-linecap: square"/>
   </g>
   <g id="patch_8">
    <path d="M 44.629688 359.66 
L 44.629688 202.46 
" style="fill: none; stroke: #000000; stroke-width: 0.8; stroke-linejoin: miter; stroke-linecap: square"/>
   </g>
   <g id="patch_9">
    <path d="M 602.249687 359.66 
L 602.249687 202.46 
" style="fill: none; stroke: #000000; stroke-width: 0.8; stroke-linejoin: miter; stroke-linecap: square"/>
   </g>
   <g id="patch_10">
    <path d="M 44.629688 359.66 
L 602.249687 359.66 
" style="fill: none; stroke: #000000; stroke-width: 0.8; stroke-linejoin: miter; stroke-linecap: square"/>
   </g>
   <g id="patch_11">
    <path d="M 44.629688 202.46 
L 602.249687 202.46 
" style="fill: none; stroke: #000000; stroke-width: 0.8; stroke-linejoin: miter; stroke-linecap: square"/>
   </g>
  </g>
  <g id="axes_3">
   <g id="patch_12">
    <path d="M 44.629688 531.16 
L 602.249687 531.16 
L 602.249687 373.96 
L 44.629688 373.96 
z
" style="fill: #ffffff"/>
   </g>
   <g id="matplotlib.axis_5">
    <g id="xtick_19">
     <g id="line2d_61">
      <path d="M 69.976051 531.16 
L 69.976051 373.96 
" clip-path="url(#p55e11a70fb)" style="fill: none; stroke-dasharray: 2.59,1.12; stroke-dashoffset: 0; stroke: #bfbfbf; stroke-opacity: 0.45; stroke-width: 0.7"/>
     </g>
     <g id="line2d_62">
      <g>
       <use xlink:href="#mb0a712acec" x="69.976051" y="531.16" style="stroke: #000000; stroke-width: 0.8"/>
      </g>
     </g>
     <g id="text_14">
      <!-- 0 -->
      <g transform="translate(67.476051 544.781875) scale(0.1 -0.1)">
       <use xlink:href="#TimesNewRomanPS-BoldMT-30"/>
      </g>
     </g>
    </g>
    <g id="xtick_20">
     <g id="line2d_63">
      <path d="M 133.373659 531.16 
L 133.373659 373.96 
" clip-path="url(#p55e11a70fb)" style="fill: none; stroke-dasharray: 2.59,1.12; stroke-dashoffset: 0; stroke: #bfbfbf; stroke-opacity: 0.45; stroke-width: 0.7"/>
     </g>
     <g id="line2d_64">
      <g>
       <use xlink:href="#mb0a712acec" x="133.373659" y="531.16" style="stroke: #000000; stroke-width: 0.8"/>
      </g>
     </g>
     <g id="text_15">
      <!-- 250 -->
      <g transform="translate(125.873659 544.781875) scale(0.1 -0.1)">
       <use xlink:href="#TimesNewRomanPS-BoldMT-32"/>
       <use xlink:href="#TimesNewRomanPS-BoldMT-35" transform="translate(50 0)"/>
       <use xlink:href="#TimesNewRomanPS-BoldMT-30" transform="translate(100 0)"/>
      </g>
     </g>
    </g>
    <g id="xtick_21">
     <g id="line2d_65">
      <path d="M 196.771267 531.16 
L 196.771267 373.96 
" clip-path="url(#p55e11a70fb)" style="fill: none; stroke-dasharray: 2.59,1.12; stroke-dashoffset: 0; stroke: #bfbfbf; stroke-opacity: 0.45; stroke-width: 0.7"/>
     </g>
     <g id="line2d_66">
      <g>
       <use xlink:href="#mb0a712acec" x="196.771267" y="531.16" style="stroke: #000000; stroke-width: 0.8"/>
      </g>
     </g>
     <g id="text_16">
      <!-- 500 -->
      <g transform="translate(189.271267 544.781875) scale(0.1 -0.1)">
       <use xlink:href="#TimesNewRomanPS-BoldMT-35"/>
       <use xlink:href="#TimesNewRomanPS-BoldMT-30" transform="translate(50 0)"/>
       <use xlink:href="#TimesNewRomanPS-BoldMT-30" transform="translate(100 0)"/>
      </g>
     </g>
    </g>
    <g id="xtick_22">
     <g id="line2d_67">
      <path d="M 260.168875 531.16 
L 260.168875 373.96 
" clip-path="url(#p55e11a70fb)" style="fill: none; stroke-dasharray: 2.59,1.12; stroke-dashoffset: 0; stroke: #bfbfbf; stroke-opacity: 0.45; stroke-width: 0.7"/>
     </g>
     <g id="line2d_68">
      <g>
       <use xlink:href="#mb0a712acec" x="260.168875" y="531.16" style="stroke: #000000; stroke-width: 0.8"/>
      </g>
     </g>
     <g id="text_17">
      <!-- 750 -->
      <g transform="translate(252.668875 544.781875) scale(0.1 -0.1)">
       <defs>
        <path id="TimesNewRomanPS-BoldMT-37" d="M 1134 -88 
L 2288 3409 
L 1409 3409 
Q 894 3409 634 3275 
Q 453 3181 334 2922 
L 216 2922 
L 522 4238 
L 3047 4238 
L 1625 -88 
L 1134 -88 
z
" transform="scale(0.015625)"/>
       </defs>
       <use xlink:href="#TimesNewRomanPS-BoldMT-37"/>
       <use xlink:href="#TimesNewRomanPS-BoldMT-35" transform="translate(50 0)"/>
       <use xlink:href="#TimesNewRomanPS-BoldMT-30" transform="translate(100 0)"/>
      </g>
     </g>
    </g>
    <g id="xtick_23">
     <g id="line2d_69">
      <path d="M 323.566483 531.16 
L 323.566483 373.96 
" clip-path="url(#p55e11a70fb)" style="fill: none; stroke-dasharray: 2.59,1.12; stroke-dashoffset: 0; stroke: #bfbfbf; stroke-opacity: 0.45; stroke-width: 0.7"/>
     </g>
     <g id="line2d_70">
      <g>
       <use xlink:href="#mb0a712acec" x="323.566483" y="531.16" style="stroke: #000000; stroke-width: 0.8"/>
      </g>
     </g>
     <g id="text_18">
      <!-- 1000 -->
      <g transform="translate(313.566483 544.781875) scale(0.1 -0.1)">
       <use xlink:href="#TimesNewRomanPS-BoldMT-31"/>
       <use xlink:href="#TimesNewRomanPS-BoldMT-30" transform="translate(50 0)"/>
       <use xlink:href="#TimesNewRomanPS-BoldMT-30" transform="translate(100 0)"/>
       <use xlink:href="#TimesNewRomanPS-BoldMT-30" transform="translate(150 0)"/>
      </g>
     </g>
    </g>
    <g id="xtick_24">
     <g id="line2d_71">
      <path d="M 386.964091 531.16 
L 386.964091 373.96 
" clip-path="url(#p55e11a70fb)" style="fill: none; stroke-dasharray: 2.59,1.12; stroke-dashoffset: 0; stroke: #bfbfbf; stroke-opacity: 0.45; stroke-width: 0.7"/>
     </g>
     <g id="line2d_72">
      <g>
       <use xlink:href="#mb0a712acec" x="386.964091" y="531.16" style="stroke: #000000; stroke-width: 0.8"/>
      </g>
     </g>
     <g id="text_19">
      <!-- 1250 -->
      <g transform="translate(376.964091 544.781875) scale(0.1 -0.1)">
       <use xlink:href="#TimesNewRomanPS-BoldMT-31"/>
       <use xlink:href="#TimesNewRomanPS-BoldMT-32" transform="translate(50 0)"/>
       <use xlink:href="#TimesNewRomanPS-BoldMT-35" transform="translate(100 0)"/>
       <use xlink:href="#TimesNewRomanPS-BoldMT-30" transform="translate(150 0)"/>
      </g>
     </g>
    </g>
    <g id="xtick_25">
     <g id="line2d_73">
      <path d="M 450.361699 531.16 
L 450.361699 373.96 
" clip-path="url(#p55e11a70fb)" style="fill: none; stroke-dasharray: 2.59,1.12; stroke-dashoffset: 0; stroke: #bfbfbf; stroke-opacity: 0.45; stroke-width: 0.7"/>
     </g>
     <g id="line2d_74">
      <g>
       <use xlink:href="#mb0a712acec" x="450.361699" y="531.16" style="stroke: #000000; stroke-width: 0.8"/>
      </g>
     </g>
     <g id="text_20">
      <!-- 1500 -->
      <g transform="translate(440.361699 544.781875) scale(0.1 -0.1)">
       <use xlink:href="#TimesNewRomanPS-BoldMT-31"/>
       <use xlink:href="#TimesNewRomanPS-BoldMT-35" transform="translate(50 0)"/>
       <use xlink:href="#TimesNewRomanPS-BoldMT-30" transform="translate(100 0)"/>
       <use xlink:href="#TimesNewRomanPS-BoldMT-30" transform="translate(150 0)"/>
      </g>
     </g>
    </g>
    <g id="xtick_26">
     <g id="line2d_75">
      <path d="M 513.759306 531.16 
L 513.759306 373.96 
" clip-path="url(#p55e11a70fb)" style="fill: none; stroke-dasharray: 2.59,1.12; stroke-dashoffset: 0; stroke: #bfbfbf; stroke-opacity: 0.45; stroke-width: 0.7"/>
     </g>
     <g id="line2d_76">
      <g>
       <use xlink:href="#mb0a712acec" x="513.759306" y="531.16" style="stroke: #000000; stroke-width: 0.8"/>
      </g>
     </g>
     <g id="text_21">
      <!-- 1750 -->
      <g transform="translate(503.759306 544.781875) scale(0.1 -0.1)">
       <use xlink:href="#TimesNewRomanPS-BoldMT-31"/>
       <use xlink:href="#TimesNewRomanPS-BoldMT-37" transform="translate(50 0)"/>
       <use xlink:href="#TimesNewRomanPS-BoldMT-35" transform="translate(100 0)"/>
       <use xlink:href="#TimesNewRomanPS-BoldMT-30" transform="translate(150 0)"/>
      </g>
     </g>
    </g>
    <g id="xtick_27">
     <g id="line2d_77">
      <path d="M 577.156914 531.16 
L 577.156914 373.96 
" clip-path="url(#p55e11a70fb)" style="fill: none; stroke-dasharray: 2.59,1.12; stroke-dashoffset: 0; stroke: #bfbfbf; stroke-opacity: 0.45; stroke-width: 0.7"/>
     </g>
     <g id="line2d_78">
      <g>
       <use xlink:href="#mb0a712acec" x="577.156914" y="531.16" style="stroke: #000000; stroke-width: 0.8"/>
      </g>
     </g>
     <g id="text_22">
      <!-- 2000 -->
      <g transform="translate(567.156914 544.781875) scale(0.1 -0.1)">
       <use xlink:href="#TimesNewRomanPS-BoldMT-32"/>
       <use xlink:href="#TimesNewRomanPS-BoldMT-30" transform="translate(50 0)"/>
       <use xlink:href="#TimesNewRomanPS-BoldMT-30" transform="translate(100 0)"/>
       <use xlink:href="#TimesNewRomanPS-BoldMT-30" transform="translate(150 0)"/>
      </g>
     </g>
    </g>
    <g id="text_23">
     <!-- Step -->
     <g transform="translate(313.994375 557.692813) scale(0.1 -0.1)">
      <defs>
       <path id="TimesNewRomanPS-BoldMT-53" d="M 3006 4334 
L 3041 2922 
L 2913 2922 
Q 2822 3453 2467 3776 
Q 2113 4100 1700 4100 
Q 1381 4100 1195 3929 
Q 1009 3759 1009 3538 
Q 1009 3397 1075 3288 
Q 1166 3141 1366 2997 
Q 1513 2894 2044 2631 
Q 2788 2266 3047 1941 
Q 3303 1616 3303 1197 
Q 3303 666 2889 283 
Q 2475 -100 1838 -100 
Q 1638 -100 1459 -59 
Q 1281 -19 1013 94 
Q 863 156 766 156 
Q 684 156 593 93 
Q 503 31 447 -97 
L 331 -97 
L 331 1503 
L 447 1503 
Q 584 828 976 473 
Q 1369 119 1822 119 
Q 2172 119 2380 309 
Q 2588 500 2588 753 
Q 2588 903 2508 1043 
Q 2428 1184 2265 1311 
Q 2103 1438 1691 1641 
Q 1113 1925 859 2125 
Q 606 2325 470 2572 
Q 334 2819 334 3116 
Q 334 3622 706 3978 
Q 1078 4334 1644 4334 
Q 1850 4334 2044 4284 
Q 2191 4247 2402 4145 
Q 2613 4044 2697 4044 
Q 2778 4044 2825 4094 
Q 2872 4144 2913 4334 
L 3006 4334 
z
" transform="scale(0.015625)"/>
       <path id="TimesNewRomanPS-BoldMT-70" d="M 1347 297 
L 1347 -791 
Q 1347 -1016 1383 -1097 
Q 1419 -1178 1494 -1215 
Q 1569 -1253 1788 -1253 
L 1788 -1369 
L 122 -1369 
L 122 -1253 
Q 316 -1247 409 -1144 
Q 472 -1072 472 -772 
L 472 2313 
Q 472 2622 400 2708 
Q 328 2794 122 2806 
L 122 2922 
L 1347 2922 
L 1347 2538 
Q 1500 2763 1659 2863 
Q 1888 3009 2156 3009 
Q 2478 3009 2742 2806 
Q 3006 2603 3143 2245 
Q 3281 1888 3281 1475 
Q 3281 1031 3139 664 
Q 2997 297 2726 104 
Q 2456 -88 2125 -88 
Q 1884 -88 1675 19 
Q 1519 100 1347 297 
z
M 1347 613 
Q 1616 231 1922 231 
Q 2091 231 2200 409 
Q 2363 672 2363 1409 
Q 2363 2166 2184 2444 
Q 2066 2628 1866 2628 
Q 1550 2628 1347 2172 
L 1347 613 
z
" transform="scale(0.015625)"/>
      </defs>
      <use xlink:href="#TimesNewRomanPS-BoldMT-53"/>
      <use xlink:href="#TimesNewRomanPS-BoldMT-74" transform="translate(55.615234 0)"/>
      <use xlink:href="#TimesNewRomanPS-BoldMT-65" transform="translate(88.916016 0)"/>
      <use xlink:href="#TimesNewRomanPS-BoldMT-70" transform="translate(133.300781 0)"/>
     </g>
    </g>
   </g>
   <g id="matplotlib.axis_6">
    <g id="ytick_12">
     <g id="line2d_79">
      <path d="M 44.629688 525.58232 
L 602.249687 525.58232 
" clip-path="url(#p55e11a70fb)" style="fill: none; stroke-dasharray: 2.59,1.12; stroke-dashoffset: 0; stroke: #bfbfbf; stroke-opacity: 0.45; stroke-width: 0.7"/>
     </g>
     <g id="line2d_80">
      <g>
       <use xlink:href="#m6d728d3288" x="44.629688" y="525.58232" style="stroke: #000000; stroke-width: 0.8"/>
      </g>
     </g>
     <g id="text_24">
      <!-- 0.00 -->
      <g transform="translate(20.129688 528.893257) scale(0.1 -0.1)">
       <use xlink:href="#TimesNewRomanPS-BoldMT-30"/>
       <use xlink:href="#TimesNewRomanPS-BoldMT-2e" transform="translate(50 0)"/>
       <use xlink:href="#TimesNewRomanPS-BoldMT-30" transform="translate(75 0)"/>
       <use xlink:href="#TimesNewRomanPS-BoldMT-30" transform="translate(125 0)"/>
      </g>
     </g>
    </g>
    <g id="ytick_13">
     <g id="line2d_81">
      <path d="M 44.629688 502.583939 
L 602.249687 502.583939 
" clip-path="url(#p55e11a70fb)" style="fill: none; stroke-dasharray: 2.59,1.12; stroke-dashoffset: 0; stroke: #bfbfbf; stroke-opacity: 0.45; stroke-width: 0.7"/>
     </g>
     <g id="line2d_82">
      <g>
       <use xlink:href="#m6d728d3288" x="44.629688" y="502.583939" style="stroke: #000000; stroke-width: 0.8"/>
      </g>
     </g>
     <g id="text_25">
      <!-- 0.25 -->
      <g transform="translate(20.129688 505.894877) scale(0.1 -0.1)">
       <use xlink:href="#TimesNewRomanPS-BoldMT-30"/>
       <use xlink:href="#TimesNewRomanPS-BoldMT-2e" transform="translate(50 0)"/>
       <use xlink:href="#TimesNewRomanPS-BoldMT-32" transform="translate(75 0)"/>
       <use xlink:href="#TimesNewRomanPS-BoldMT-35" transform="translate(125 0)"/>
      </g>
     </g>
    </g>
    <g id="ytick_14">
     <g id="line2d_83">
      <path d="M 44.629688 479.585559 
L 602.249687 479.585559 
" clip-path="url(#p55e11a70fb)" style="fill: none; stroke-dasharray: 2.59,1.12; stroke-dashoffset: 0; stroke: #bfbfbf; stroke-opacity: 0.45; stroke-width: 0.7"/>
     </g>
     <g id="line2d_84">
      <g>
       <use xlink:href="#m6d728d3288" x="44.629688" y="479.585559" style="stroke: #000000; stroke-width: 0.8"/>
      </g>
     </g>
     <g id="text_26">
      <!-- 0.50 -->
      <g transform="translate(20.129688 482.896496) scale(0.1 -0.1)">
       <use xlink:href="#TimesNewRomanPS-BoldMT-30"/>
       <use xlink:href="#TimesNewRomanPS-BoldMT-2e" transform="translate(50 0)"/>
       <use xlink:href="#TimesNewRomanPS-BoldMT-35" transform="translate(75 0)"/>
       <use xlink:href="#TimesNewRomanPS-BoldMT-30" transform="translate(125 0)"/>
      </g>
     </g>
    </g>
    <g id="ytick_15">
     <g id="line2d_85">
      <path d="M 44.629688 456.587178 
L 602.249687 456.587178 
" clip-path="url(#p55e11a70fb)" style="fill: none; stroke-dasharray: 2.59,1.12; stroke-dashoffset: 0; stroke: #bfbfbf; stroke-opacity: 0.45; stroke-width: 0.7"/>
     </g>
     <g id="line2d_86">
      <g>
       <use xlink:href="#m6d728d3288" x="44.629688" y="456.587178" style="stroke: #000000; stroke-width: 0.8"/>
      </g>
     </g>
     <g id="text_27">
      <!-- 0.75 -->
      <g transform="translate(20.129688 459.898116) scale(0.1 -0.1)">
       <use xlink:href="#TimesNewRomanPS-BoldMT-30"/>
       <use xlink:href="#TimesNewRomanPS-BoldMT-2e" transform="translate(50 0)"/>
       <use xlink:href="#TimesNewRomanPS-BoldMT-37" transform="translate(75 0)"/>
       <use xlink:href="#TimesNewRomanPS-BoldMT-35" transform="translate(125 0)"/>
      </g>
     </g>
    </g>
    <g id="ytick_16">
     <g id="line2d_87">
      <path d="M 44.629688 433.588798 
L 602.249687 433.588798 
" clip-path="url(#p55e11a70fb)" style="fill: none; stroke-dasharray: 2.59,1.12; stroke-dashoffset: 0; stroke: #bfbfbf; stroke-opacity: 0.45; stroke-width: 0.7"/>
     </g>
     <g id="line2d_88">
      <g>
       <use xlink:href="#m6d728d3288" x="44.629688" y="433.588798" style="stroke: #000000; stroke-width: 0.8"/>
      </g>
     </g>
     <g id="text_28">
      <!-- 1.00 -->
      <g transform="translate(20.129688 436.899736) scale(0.1 -0.1)">
       <use xlink:href="#TimesNewRomanPS-BoldMT-31"/>
       <use xlink:href="#TimesNewRomanPS-BoldMT-2e" transform="translate(50 0)"/>
       <use xlink:href="#TimesNewRomanPS-BoldMT-30" transform="translate(75 0)"/>
       <use xlink:href="#TimesNewRomanPS-BoldMT-30" transform="translate(125 0)"/>
      </g>
     </g>
    </g>
    <g id="ytick_17">
     <g id="line2d_89">
      <path d="M 44.629688 410.590418 
L 602.249687 410.590418 
" clip-path="url(#p55e11a70fb)" style="fill: none; stroke-dasharray: 2.59,1.12; stroke-dashoffset: 0; stroke: #bfbfbf; stroke-opacity: 0.45; stroke-width: 0.7"/>
     </g>
     <g id="line2d_90">
      <g>
       <use xlink:href="#m6d728d3288" x="44.629688" y="410.590418" style="stroke: #000000; stroke-width: 0.8"/>
      </g>
     </g>
     <g id="text_29">
      <!-- 1.25 -->
      <g transform="translate(20.129688 413.901355) scale(0.1 -0.1)">
       <use xlink:href="#TimesNewRomanPS-BoldMT-31"/>
       <use xlink:href="#TimesNewRomanPS-BoldMT-2e" transform="translate(50 0)"/>
       <use xlink:href="#TimesNewRomanPS-BoldMT-32" transform="translate(75 0)"/>
       <use xlink:href="#TimesNewRomanPS-BoldMT-35" transform="translate(125 0)"/>
      </g>
     </g>
    </g>
    <g id="ytick_18">
     <g id="line2d_91">
      <path d="M 44.629688 387.592037 
L 602.249687 387.592037 
" clip-path="url(#p55e11a70fb)" style="fill: none; stroke-dasharray: 2.59,1.12; stroke-dashoffset: 0; stroke: #bfbfbf; stroke-opacity: 0.45; stroke-width: 0.7"/>
     </g>
     <g id="line2d_92">
      <g>
       <use xlink:href="#m6d728d3288" x="44.629688" y="387.592037" style="stroke: #000000; stroke-width: 0.8"/>
      </g>
     </g>
     <g id="text_30">
      <!-- 1.50 -->
      <g transform="translate(20.129688 390.902975) scale(0.1 -0.1)">
       <use xlink:href="#TimesNewRomanPS-BoldMT-31"/>
       <use xlink:href="#TimesNewRomanPS-BoldMT-2e" transform="translate(50 0)"/>
       <use xlink:href="#TimesNewRomanPS-BoldMT-35" transform="translate(75 0)"/>
       <use xlink:href="#TimesNewRomanPS-BoldMT-30" transform="translate(125 0)"/>
      </g>
     </g>
    </g>
    <g id="text_31">
     <!-- Max |qdot| [rad/s] -->
     <g transform="translate(13.971875 490.871719) rotate(-90) scale(0.1 -0.1)">
      <defs>
       <path id="TimesNewRomanPS-BoldMT-4d" d="M 3050 1444 
L 4200 4238 
L 5925 4238 
L 5925 4122 
L 5788 4122 
Q 5600 4122 5488 4056 
Q 5409 4013 5363 3909 
Q 5328 3834 5328 3519 
L 5328 725 
Q 5328 400 5362 319 
Q 5397 238 5503 177 
Q 5609 116 5788 116 
L 5925 116 
L 5925 0 
L 3713 0 
L 3713 116 
L 3850 116 
Q 4038 116 4150 181 
Q 4228 225 4275 331 
Q 4309 406 4309 725 
L 4309 3866 
L 2684 0 
L 2609 0 
L 959 3838 
L 959 853 
Q 959 541 975 469 
Q 1016 313 1152 214 
Q 1288 116 1578 116 
L 1578 0 
L 128 0 
L 128 116 
L 172 116 
Q 313 113 434 161 
Q 556 209 618 290 
Q 681 372 716 519 
Q 722 553 722 838 
L 722 3519 
Q 722 3841 687 3920 
Q 653 4000 547 4061 
Q 441 4122 263 4122 
L 128 4122 
L 128 4238 
L 1859 4238 
L 3050 1444 
z
" transform="scale(0.015625)"/>
       <path id="TimesNewRomanPS-BoldMT-78" d="M 1944 1791 
L 2450 828 
Q 2713 325 2866 191 
Q 2950 119 3097 113 
L 3097 0 
L 1469 0 
L 1469 113 
Q 1659 128 1704 162 
Q 1750 197 1750 256 
Q 1750 344 1650 531 
L 1397 1006 
L 1181 691 
Q 1034 475 1016 434 
Q 991 375 991 328 
Q 991 256 1020 207 
Q 1050 159 1101 136 
Q 1153 113 1291 113 
L 1291 0 
L 147 0 
L 147 113 
Q 359 113 536 230 
Q 713 347 1050 844 
L 1291 1200 
L 788 2131 
Q 541 2588 419 2691 
Q 297 2794 147 2806 
L 147 2922 
L 1766 2922 
L 1766 2806 
L 1681 2803 
L 1519 2747 
Q 1494 2725 1494 2675 
Q 1494 2628 1509 2578 
Q 1519 2556 1597 2409 
L 1825 1984 
L 1944 2153 
Q 2194 2497 2194 2634 
Q 2194 2700 2139 2745 
Q 2084 2791 1944 2806 
L 1944 2922 
L 2978 2922 
L 2978 2806 
Q 2788 2800 2622 2689 
Q 2456 2578 2250 2259 
L 1944 1791 
z
" transform="scale(0.015625)"/>
       <path id="TimesNewRomanPS-BoldMT-7c" d="M 497 -1381 
L 497 4334 
L 903 4334 
L 903 -1381 
L 497 -1381 
z
" transform="scale(0.015625)"/>
       <path id="TimesNewRomanPS-BoldMT-71" d="M 2178 306 
Q 1988 106 1822 25 
Q 1603 -88 1366 -88 
Q 816 -88 497 403 
Q 244 794 244 1338 
Q 244 1791 436 2189 
Q 628 2588 964 2798 
Q 1300 3009 1675 3009 
Q 1925 3009 2120 2925 
Q 2316 2841 2456 2669 
L 2947 3009 
L 3053 3009 
L 3053 -775 
Q 3053 -1063 3103 -1134 
Q 3184 -1250 3431 -1253 
L 3431 -1369 
L 1744 -1369 
L 1744 -1253 
Q 1938 -1253 2025 -1209 
Q 2113 -1166 2145 -1094 
Q 2178 -1022 2178 -800 
L 2178 306 
z
M 2178 591 
L 2178 1794 
Q 2178 2297 2123 2459 
Q 2069 2622 1922 2741 
Q 1847 2800 1731 2800 
Q 1494 2800 1363 2591 
Q 1156 2269 1156 1394 
Q 1156 722 1334 450 
Q 1456 266 1650 266 
Q 1763 266 1905 344 
Q 2047 422 2178 591 
z
" transform="scale(0.015625)"/>
       <path id="TimesNewRomanPS-BoldMT-2f" d="M 1797 4334 
L 406 -97 
L 6 -97 
L 1403 4334 
L 1797 4334 
z
" transform="scale(0.015625)"/>
      </defs>
      <use xlink:href="#TimesNewRomanPS-BoldMT-4d"/>
      <use xlink:href="#TimesNewRomanPS-BoldMT-61" transform="translate(94.384766 0)"/>
      <use xlink:href="#TimesNewRomanPS-BoldMT-78" transform="translate(144.384766 0)"/>
      <use xlink:href="#TimesNewRomanPS-BoldMT-20" transform="translate(194.384766 0)"/>
      <use xlink:href="#TimesNewRomanPS-BoldMT-7c" transform="translate(219.384766 0)"/>
      <use xlink:href="#TimesNewRomanPS-BoldMT-71" transform="translate(241.40625 0)"/>
      <use xlink:href="#TimesNewRomanPS-BoldMT-64" transform="translate(297.021484 0)"/>
      <use xlink:href="#TimesNewRomanPS-BoldMT-6f" transform="translate(352.636719 0)"/>
      <use xlink:href="#TimesNewRomanPS-BoldMT-74" transform="translate(402.636719 0)"/>
      <use xlink:href="#TimesNewRomanPS-BoldMT-7c" transform="translate(435.9375 0)"/>
      <use xlink:href="#TimesNewRomanPS-BoldMT-20" transform="translate(457.958984 0)"/>
      <use xlink:href="#TimesNewRomanPS-BoldMT-5b" transform="translate(482.958984 0)"/>
      <use xlink:href="#TimesNewRomanPS-BoldMT-72" transform="translate(516.259766 0)"/>
      <use xlink:href="#TimesNewRomanPS-BoldMT-61" transform="translate(560.644531 0)"/>
      <use xlink:href="#TimesNewRomanPS-BoldMT-64" transform="translate(610.644531 0)"/>
      <use xlink:href="#TimesNewRomanPS-BoldMT-2f" transform="translate(666.259766 0)"/>
      <use xlink:href="#TimesNewRomanPS-BoldMT-73" transform="translate(694.042969 0)"/>
      <use xlink:href="#TimesNewRomanPS-BoldMT-5d" transform="translate(732.958984 0)"/>
     </g>
    </g>
   </g>
   <g id="line2d_93">
    <path d="M 69.976051 523.993671 
L 72.511955 523.984327 
L 75.04786 523.770823 
L 77.837355 523.301172 
L 80.626849 522.587483 
L 83.416344 521.632614 
L 86.205839 520.440253 
L 88.995334 519.014899 
L 92.038419 517.200453 
L 95.081504 515.122881 
L 98.378179 512.585603 
L 101.674855 509.762655 
L 105.225121 506.419205 
L 109.028978 502.509278 
L 113.086425 497.99373 
L 117.397462 492.843411 
L 121.96209 487.042816 
L 127.287489 479.898662 
L 133.627249 470.993023 
L 143.010095 457.366155 
L 154.928846 440.110628 
L 161.268607 431.322102 
L 166.594006 424.300787 
L 171.412224 418.303398 
L 175.976852 412.979413 
L 180.287889 408.30176 
L 184.345336 404.229999 
L 188.149192 400.71542 
L 191.953049 397.500261 
L 195.756905 394.587309 
L 199.307171 392.140983 
L 202.857437 389.955357 
L 206.407703 388.026506 
L 209.957969 386.349259 
L 213.508235 384.91756 
L 217.058501 383.724796 
L 220.608767 382.764079 
L 224.159034 382.028473 
L 227.7093 381.511169 
L 231.259566 381.205592 
L 235.063422 381.106003 
L 238.867279 381.234891 
L 242.671135 381.585215 
L 246.474992 382.150152 
L 250.532438 382.981707 
L 254.589885 384.041503 
L 258.900923 385.408057 
L 263.21196 387.011823 
L 267.776588 388.955693 
L 272.341216 391.138029 
L 274.87712 392.447818 
L 275.637891 392.11541 
L 278.680976 390.752383 
L 281.724062 389.645728 
L 284.767147 388.791936 
L 287.810232 388.185751 
L 290.853317 387.820348 
L 293.896402 387.687541 
L 296.939487 387.778002 
L 299.982573 388.081482 
L 303.279248 388.637943 
L 306.575924 389.417051 
L 310.12619 390.488051 
L 313.930046 391.881857 
L 317.733903 393.508483 
L 321.79135 395.475753 
L 326.355977 397.945157 
L 331.174196 400.811322 
L 336.499595 404.248394 
L 342.332175 408.290066 
L 348.671935 412.959473 
L 355.772468 418.470552 
L 363.887361 425.059313 
L 373.523798 433.18339 
L 386.964091 444.837054 
L 405.983373 461.312373 
L 414.605448 468.477627 
L 421.70598 474.096202 
L 427.79215 478.637904 
L 433.37114 482.525688 
L 438.442948 485.790241 
L 443.007576 488.47705 
L 447.318613 490.770011 
L 451.629651 492.808103 
L 457.969411 495.545226 
L 464.562763 498.154369 
L 471.409704 500.628207 
L 478.510236 502.961503 
L 486.117949 505.222649 
L 493.979253 507.324176 
L 502.347737 509.325218 
L 510.969812 511.159111 
L 520.099067 512.876916 
L 529.989094 514.508556 
L 540.386302 515.999 
L 551.797871 517.405368 
L 563.970212 518.679023 
L 576.903324 519.815778 
L 576.903324 519.815778 
" clip-path="url(#p55e11a70fb)" style="fill: none; stroke: #548235; stroke-width: 2.2; stroke-linecap: square"/>
   </g>
   <g id="patch_13">
    <path d="M 44.629688 531.16 
L 44.629688 373.96 
" style="fill: none; stroke: #000000; stroke-width: 0.8; stroke-linejoin: miter; stroke-linecap: square"/>
   </g>
   <g id="patch_14">
    <path d="M 602.249687 531.16 
L 602.249687 373.96 
" style="fill: none; stroke: #000000; stroke-width: 0.8; stroke-linejoin: miter; stroke-linecap: square"/>
   </g>
   <g id="patch_15">
    <path d="M 44.629688 531.16 
L 602.249687 531.16 
" style="fill: none; stroke: #000000; stroke-width: 0.8; stroke-linejoin: miter; stroke-linecap: square"/>
   </g>
   <g id="patch_16">
    <path d="M 44.629688 373.96 
L 602.249687 373.96 
" style="fill: none; stroke: #000000; stroke-width: 0.8; stroke-linejoin: miter; stroke-linecap: square"/>
   </g>
  </g>
  <g id="text_32">
   <!-- TCP 6D Pose Control Error -->
   <g transform="translate(217.741094 17.132812) scale(0.15 -0.15)">
    <defs>
     <path id="TimesNewRomanPS-BoldMT-54" d="M 4038 4238 
L 4038 3091 
L 3925 3091 
Q 3825 3488 3703 3661 
Q 3581 3834 3369 3938 
Q 3250 3994 2953 3994 
L 2638 3994 
L 2638 725 
Q 2638 400 2673 319 
Q 2709 238 2814 177 
Q 2919 116 3100 116 
L 3241 116 
L 3241 0 
L 1022 0 
L 1022 116 
L 1163 116 
Q 1347 116 1459 181 
Q 1541 225 1588 331 
Q 1622 406 1622 725 
L 1622 3994 
L 1316 3994 
Q 888 3994 694 3813 
Q 422 3559 350 3091 
L 231 3091 
L 231 4238 
L 4038 4238 
z
" transform="scale(0.015625)"/>
     <path id="TimesNewRomanPS-BoldMT-43" d="M 4272 4334 
L 4272 2866 
L 4150 2866 
Q 4013 3441 3638 3747 
Q 3263 4053 2788 4053 
Q 2391 4053 2059 3825 
Q 1728 3597 1575 3228 
Q 1378 2756 1378 2178 
Q 1378 1609 1522 1142 
Q 1666 675 1972 436 
Q 2278 197 2766 197 
Q 3166 197 3498 372 
Q 3831 547 4200 975 
L 4200 609 
Q 3844 238 3458 70 
Q 3072 -97 2556 -97 
Q 1878 -97 1351 175 
Q 825 447 539 956 
Q 253 1466 253 2041 
Q 253 2647 570 3190 
Q 888 3734 1427 4034 
Q 1966 4334 2572 4334 
Q 3019 4334 3516 4141 
Q 3803 4028 3881 4028 
Q 3981 4028 4054 4101 
Q 4128 4175 4150 4334 
L 4272 4334 
z
" transform="scale(0.015625)"/>
     <path id="TimesNewRomanPS-BoldMT-36" d="M 3006 4325 
L 3006 4238 
Q 2441 4094 2098 3867 
Q 1756 3641 1557 3317 
Q 1359 2994 1250 2516 
Q 1388 2609 1478 2638 
Q 1681 2700 1888 2700 
Q 2363 2700 2680 2354 
Q 2997 2009 2997 1413 
Q 2997 994 2825 644 
Q 2653 294 2337 103 
Q 2022 -88 1663 -88 
Q 1272 -88 940 126 
Q 609 341 423 753 
Q 238 1166 238 1650 
Q 238 2363 580 2977 
Q 922 3591 1551 3955 
Q 2181 4319 3006 4325 
z
M 1209 2263 
Q 1184 1831 1184 1631 
Q 1184 1200 1267 797 
Q 1350 394 1494 231 
Q 1597 116 1738 116 
Q 1881 116 1993 283 
Q 2106 450 2106 963 
Q 2106 1825 1897 2153 
Q 1763 2366 1534 2366 
Q 1409 2366 1209 2263 
z
" transform="scale(0.015625)"/>
     <path id="TimesNewRomanPS-BoldMT-44" d="M 84 0 
L 84 116 
L 225 116 
Q 409 116 507 173 
Q 606 231 653 331 
Q 681 397 681 725 
L 681 3513 
Q 681 3838 647 3919 
Q 613 4000 508 4061 
Q 403 4122 225 4122 
L 84 4122 
L 84 4238 
L 1981 4238 
Q 2741 4238 3203 4031 
Q 3769 3778 4061 3265 
Q 4353 2753 4353 2106 
Q 4353 1659 4209 1282 
Q 4066 906 3837 661 
Q 3609 416 3311 267 
Q 3013 119 2581 38 
Q 2391 0 1981 0 
L 84 0 
z
M 1700 3997 
L 1700 691 
Q 1700 428 1725 368 
Q 1750 309 1809 278 
Q 1894 231 2053 231 
Q 2575 231 2850 588 
Q 3225 1069 3225 2081 
Q 3225 2897 2969 3384 
Q 2766 3766 2447 3903 
Q 2222 4000 1700 3997 
z
" transform="scale(0.015625)"/>
     <path id="TimesNewRomanPS-BoldMT-6c" d="M 1359 4238 
L 1359 606 
Q 1359 297 1431 211 
Q 1503 125 1713 113 
L 1713 0 
L 134 0 
L 134 113 
Q 328 119 422 225 
Q 484 297 484 606 
L 484 3631 
Q 484 3938 412 4023 
Q 341 4109 134 4122 
L 134 4238 
L 1359 4238 
z
" transform="scale(0.015625)"/>
    </defs>
    <use xlink:href="#TimesNewRomanPS-BoldMT-54"/>
    <use xlink:href="#TimesNewRomanPS-BoldMT-43" transform="translate(66.699219 0)"/>
    <use xlink:href="#TimesNewRomanPS-BoldMT-50" transform="translate(138.916016 0)"/>
    <use xlink:href="#TimesNewRomanPS-BoldMT-20" transform="translate(194.5 0)"/>
    <use xlink:href="#TimesNewRomanPS-BoldMT-36" transform="translate(219.5 0)"/>
    <use xlink:href="#TimesNewRomanPS-BoldMT-44" transform="translate(269.5 0)"/>
    <use xlink:href="#TimesNewRomanPS-BoldMT-20" transform="translate(341.716797 0)"/>
    <use xlink:href="#TimesNewRomanPS-BoldMT-50" transform="translate(366.716797 0)"/>
    <use xlink:href="#TimesNewRomanPS-BoldMT-6f" transform="translate(427.800781 0)"/>
    <use xlink:href="#TimesNewRomanPS-BoldMT-73" transform="translate(477.800781 0)"/>
    <use xlink:href="#TimesNewRomanPS-BoldMT-65" transform="translate(516.716797 0)"/>
    <use xlink:href="#TimesNewRomanPS-BoldMT-20" transform="translate(561.101562 0)"/>
    <use xlink:href="#TimesNewRomanPS-BoldMT-43" transform="translate(586.101562 0)"/>
    <use xlink:href="#TimesNewRomanPS-BoldMT-6f" transform="translate(658.318359 0)"/>
    <use xlink:href="#TimesNewRomanPS-BoldMT-6e" transform="translate(708.318359 0)"/>
    <use xlink:href="#TimesNewRomanPS-BoldMT-74" transform="translate(763.933594 0)"/>
    <use xlink:href="#TimesNewRomanPS-BoldMT-72" transform="translate(797.234375 0)"/>
    <use xlink:href="#TimesNewRomanPS-BoldMT-6f" transform="translate(839.869141 0)"/>
    <use xlink:href="#TimesNewRomanPS-BoldMT-6c" transform="translate(889.869141 0)"/>
    <use xlink:href="#TimesNewRomanPS-BoldMT-20" transform="translate(917.652344 0)"/>
    <use xlink:href="#TimesNewRomanPS-BoldMT-45" transform="translate(942.652344 0)"/>
    <use xlink:href="#TimesNewRomanPS-BoldMT-72" transform="translate(1009.351562 0)"/>
    <use xlink:href="#TimesNewRomanPS-BoldMT-72" transform="translate(1053.736328 0)"/>
    <use xlink:href="#TimesNewRomanPS-BoldMT-6f" transform="translate(1096.371094 0)"/>
    <use xlink:href="#TimesNewRomanPS-BoldMT-72" transform="translate(1146.371094 0)"/>
   </g>
  </g>
 </g>
 <defs>
  <clipPath id="pe244a90414">
   <rect x="44.629688" y="30.96" width="557.62" height="157.2"/>
  </clipPath>
  <clipPath id="p2381382105">
   <rect x="44.629688" y="202.46" width="557.62" height="157.2"/>
  </clipPath>
  <clipPath id="p55e11a70fb">
   <rect x="44.629688" y="373.96" width="557.62" height="157.2"/>
  </clipPath>
 </defs>
</svg>
